<svg xmlns="http://www.w3.org/2000/svg" xmlns:xlink="http://www.w3.org/1999/xlink" width="60" zoomAndPan="magnify" viewBox="0 0 45 32.999998" height="44" preserveAspectRatio="xMidYMid meet" version="1.0"><defs><clipPath id="01e3c86fcd"><path d="M 15 0.859375 L 30 0.859375 L 30 16 L 15 16 Z M 15 0.859375 " clip-rule="nonzero"/></clipPath><clipPath id="5a9ac5e7ff"><path d="M 15 0.859375 L 30 0.859375 L 30 17 L 15 17 Z M 15 0.859375 " clip-rule="nonzero"/></clipPath><clipPath id="aa65023fd8"><path d="M 22 5 L 43.863281 5 L 43.863281 25 L 22 25 Z M 22 5 " clip-rule="nonzero"/></clipPath><clipPath id="4c35c806c6"><path d="M 22 4 L 43.863281 4 L 43.863281 25 L 22 25 Z M 22 4 " clip-rule="nonzero"/></clipPath><clipPath id="4b474b55ce"><path d="M 1.113281 4 L 33 4 L 33 29 L 1.113281 29 Z M 1.113281 4 " clip-rule="nonzero"/></clipPath><clipPath id="0c47c0e970"><path d="M 1.113281 4 L 33 4 L 33 30 L 1.113281 30 Z M 1.113281 4 " clip-rule="nonzero"/></clipPath><clipPath id="1237ad4f04"><path d="M 27 23 L 37 23 L 37 32.359375 L 27 32.359375 Z M 27 23 " clip-rule="nonzero"/></clipPath><clipPath id="d6b5149f15"><path d="M 27 22 L 38 22 L 38 32.359375 L 27 32.359375 Z M 27 22 " clip-rule="nonzero"/></clipPath><clipPath id="e830fa14e7"><path d="M 7 21 L 17 21 L 17 32.359375 L 7 32.359375 Z M 7 21 " clip-rule="nonzero"/></clipPath></defs><g clip-path="url(#01e3c86fcd)"><path fill="#000000" d="M 16.722656 10.453125 C 16.996094 9.617188 16.722656 8.136719 16.8125 7.210938 C 16.90625 6.652344 17.273438 6.097656 17.550781 5.542969 C 17.734375 4.984375 18.007812 4.246094 18.652344 4.058594 C 18.46875 4.613281 18.378906 4.613281 18.191406 5.078125 L 17.917969 6.097656 C 17.734375 6.5625 17.457031 6.746094 17.367188 7.210938 C 17.183594 7.859375 17.273438 9.433594 17.273438 10.175781 C 17.273438 10.359375 17.273438 10.636719 17.089844 10.824219 C 16.8125 11.191406 15.988281 10.914062 16.078125 11.839844 C 16.078125 11.933594 16.078125 12.121094 16.171875 12.210938 C 16.539062 13.046875 18.007812 13.324219 18.746094 13.695312 C 19.480469 14.15625 19.296875 14.621094 20.03125 15.085938 C 20.765625 15.640625 22.699219 15.640625 23.617188 15.546875 C 23.894531 15.453125 24.351562 15.453125 24.628906 15.269531 C 25.363281 14.992188 25.457031 14.25 26.191406 13.785156 C 26.742188 13.507812 27.9375 13.324219 28.492188 12.488281 C 28.582031 12.398438 28.675781 12.210938 28.675781 12.121094 C 28.949219 11.101562 27.753906 11.472656 27.480469 10.824219 C 27.296875 10.359375 27.570312 8.875 27.664062 8.414062 L 27.9375 8.691406 L 27.9375 9.523438 L 28.03125 10.453125 C 29.042969 10.265625 28.949219 9.0625 29.042969 8.226562 C 29.226562 6.003906 29.226562 4.613281 27.664062 2.855469 C 26.742188 1.929688 25.546875 1.1875 24.261719 1 L 23.433594 1 L 22.789062 0.910156 L 22.054688 1 C 20.859375 1.09375 20.03125 1.09375 19.019531 1.648438 C 18.285156 2.019531 17.824219 2.484375 17.273438 3.132812 C 15.894531 4.613281 15.617188 6.46875 15.894531 8.414062 C 15.988281 9.15625 16.171875 9.988281 16.722656 10.453125 Z M 19.757812 7.671875 C 21.042969 7.578125 21.960938 8.507812 21.503906 9.804688 C 21.136719 10.636719 20.308594 11.285156 19.386719 11.472656 C 18.5625 11.5625 18.191406 11.007812 18.191406 10.265625 C 18.191406 9.0625 18.378906 8.042969 19.757812 7.671875 Z M 24.90625 7.671875 C 26.007812 7.671875 26.558594 8.597656 26.652344 9.617188 C 26.652344 9.894531 26.742188 10.175781 26.742188 10.359375 C 26.652344 11.007812 26.007812 11.472656 25.363281 11.5625 C 24.351562 11.5625 23.15625 9.988281 23.25 9.0625 C 23.433594 8.226562 24.167969 7.859375 24.90625 7.671875 Z M 23.25 13.324219 L 22.238281 13.136719 L 21.410156 13.417969 C 21.320312 12.769531 21.59375 11.839844 21.871094 11.191406 C 21.960938 11.007812 22.148438 10.636719 22.332031 10.542969 C 22.699219 10.453125 22.789062 10.914062 22.789062 11.101562 C 22.972656 11.839844 23.25 12.582031 23.25 13.324219 Z M 23.25 13.324219 " fill-opacity="1" fill-rule="nonzero"/></g><g clip-path="url(#5a9ac5e7ff)"><path stroke-linecap="butt" transform="matrix(0.0919418, 0, 0, 0.0926471, -10.584694, -3.90852)" fill="none" stroke-linejoin="miter" d="M 297.006999 155.014589 C 299.981028 145.991771 297.006999 130.012107 297.98418 120.019547 C 299.003847 113.99028 302.997543 108.003177 306.014058 102.016073 C 308.010906 95.986807 310.984935 88.018056 317.995146 85.994246 C 315.998298 91.98135 315.021117 91.98135 312.981783 96.998711 L 310.007754 108.003177 C 308.010906 113.020538 304.994391 115.002185 304.01721 120.019547 C 302.020362 127.018555 302.997543 144.010124 302.997543 152.021037 C 302.997543 154.002684 302.997543 156.996236 301.000695 159.020046 C 297.98418 162.98334 289.019606 159.989788 289.996787 169.982348 C 289.996787 170.994253 289.996787 173.018063 291.016454 173.987805 C 295.010151 183.010623 310.984935 186.004175 319.014813 190.009632 C 327.002205 194.98483 325.005357 200.002192 332.99275 205.019553 C 340.980142 211.006657 362.010776 211.006657 371.995016 209.994752 C 375.011531 208.982847 379.982408 208.982847 382.998923 207.0012 C 390.986315 204.007649 392.005982 195.996735 399.993375 190.979374 C 405.983919 187.985822 418.984674 186.004175 425.017704 176.981357 C 425.994885 176.011615 427.014552 173.987805 427.014552 173.018063 C 429.988581 162.013598 416.987826 166.019054 414.013797 159.020046 C 412.016949 154.002684 414.990978 137.980858 416.010645 133.005659 L 418.984674 135.999211 L 418.984674 144.979866 L 420.004341 155.014589 C 431.008249 152.990779 429.988581 140.004667 431.008249 130.981849 C 433.005097 106.991272 433.005097 91.98135 416.010645 73.008134 C 405.983919 63.015574 392.983163 55.00466 379.005227 52.980851 L 369.998168 52.980851 L 362.987956 52.011109 L 355.000564 52.980851 C 341.999809 53.992756 332.99275 53.992756 321.988842 59.979859 C 314.00145 63.985316 308.988087 69.002677 302.997543 76.001686 C 287.999939 91.98135 284.983424 112.008633 287.999939 133.005659 C 289.019606 141.016572 291.016454 149.997228 297.006999 155.014589 Z M 330.018721 124.994745 C 343.996657 123.982841 353.980897 134.017564 349.01002 148.015581 C 345.016324 156.996236 336.009265 163.995245 325.982538 166.019054 C 317.017965 166.988796 312.981783 161.001693 312.981783 152.990779 C 312.981783 140.004667 315.021117 129.000202 330.018721 124.994745 Z M 386.015438 124.994745 C 397.996527 124.994745 403.987071 134.987306 405.006738 145.991771 C 405.006738 148.985323 405.983919 152.021037 405.983919 154.002684 C 405.006738 161.001693 397.996527 166.019054 390.986315 166.988796 C 379.982408 166.988796 366.981653 149.997228 368.00132 140.004667 C 369.998168 130.981849 377.98556 127.018555 386.015438 124.994745 Z M 368.00132 186.004175 L 356.997412 183.980365 L 347.990353 187.01608 C 347.013172 180.017071 349.987201 169.982348 353.003716 162.98334 C 353.980897 161.001693 356.020231 156.996236 358.017079 155.984331 C 362.010776 155.014589 362.987956 159.989788 362.987956 162.013598 C 364.984805 169.982348 368.00132 177.993262 368.00132 186.004175 Z M 368.00132 186.004175 " stroke="#000000" stroke-width="1" stroke-opacity="1" stroke-miterlimit="4"/></g><path stroke-linecap="butt" transform="matrix(0.0919418, 0, 0, 0.0926471, -10.584694, -3.90852)" fill-opacity="1" fill="#000000" fill-rule="nonzero" stroke-linejoin="miter" d="M 407.003586 201.983839 C 403.987071 202.995744 399.993375 202.995744 397.019346 205.019553 C 386.992619 212.018562 392.005982 229.010131 382.998923 240.014596 C 379.005227 244.989795 369.998168 247.013604 362.987956 247.013604 C 349.987201 247.013604 334.012417 246.0017 327.979386 233.015587 C 323.008509 223.992769 330.018721 215.012114 319.014813 204.007649 C 317.017965 202.995744 314.00145 200.002192 312.004602 200.002192 C 308.988087 200.002192 310.007754 204.007649 310.007754 205.989296 L 310.984935 226.016579 C 310.984935 240.984338 315.021117 240.984338 321.988842 250.007156 C 325.982538 255.99426 328.999054 261.981364 336.009265 265.017078 C 345.016324 268.01063 355.000564 268.01063 364.007624 266.998725 C 371.017835 266.998725 375.011531 268.01063 381.979256 264.005173 C 388.989467 259.999717 401.013042 244.020053 403.00989 236.009139 L 403.987071 222.011122 C 405.983919 212.018562 407.003586 214.000209 407.003586 201.983839 Z M 407.003586 201.983839 " stroke="#000000" stroke-width="1" stroke-opacity="1" stroke-miterlimit="4"/><g clip-path="url(#aa65023fd8)"><path fill="#000000" d="M 43.660156 5.171875 C 42.28125 7.117188 40.785156 8.765625 39.15625 10.730469 L 36.949219 13.230469 C 35.109375 14.992188 30.511719 18.417969 28.398438 19.808594 C 27.203125 20.644531 25.917969 21.292969 24.628906 21.847656 L 22.949219 22.667969 C 23.226562 22.945312 23.738281 23.097656 24.203125 23.316406 C 24.480469 23.316406 25.457031 22.773438 25.730469 22.589844 L 28.675781 20.921875 C 29.226562 20.550781 29.777344 20.085938 30.421875 19.996094 C 30.144531 20.644531 29.5 21.011719 28.859375 21.382812 L 27.113281 22.402344 C 27.113281 22.402344 25.277344 23.457031 25.027344 23.632812 C 25.527344 23.832031 26.285156 24.0625 26.761719 24.257812 C 27.222656 24.257812 27.847656 23.792969 28.214844 23.609375 C 29.226562 23.050781 30.511719 22.21875 31.523438 21.476562 L 33.179688 20.363281 C 34.464844 19.347656 35.753906 18.234375 36.949219 17.03125 C 37.867188 16.195312 38.789062 15.363281 39.523438 14.34375 C 40.535156 13.136719 41.179688 11.75 41.914062 10.359375 C 42.742188 9.0625 43.015625 8.226562 43.476562 6.839844 C 43.570312 6.375 43.84375 5.632812 43.660156 5.171875 Z M 43.660156 5.171875 " fill-opacity="1" fill-rule="nonzero"/></g><g clip-path="url(#4c35c806c6)"><path stroke-linecap="butt" transform="matrix(0.0919418, 0, 0, 0.0926471, -10.584694, -3.90852)" fill="none" stroke-linejoin="miter" d="M 589.991342 98.010616 C 574.993739 119.007642 558.721551 136.800302 541.004836 158.008141 L 517.000173 184.99227 C 496.989206 204.007649 446.983033 240.984338 423.998037 255.99426 C 410.997282 265.017078 397.019346 272.016087 382.998923 278.00319 L 364.729888 286.857358 C 367.746403 289.85091 373.312086 291.495255 378.367935 293.856366 C 381.38445 293.856366 392.005982 287.995751 394.980011 286.014104 L 427.014552 268.01063 C 433.005097 264.005173 438.995641 258.987812 446.005852 258.01807 C 442.989337 265.017078 435.979126 268.980372 429.0114 272.985829 L 410.020101 283.990294 C 410.020101 283.990294 390.05162 295.374223 387.332508 297.271545 C 392.770733 299.421843 401.013042 301.909442 406.196349 304.017577 C 411.209713 304.017577 418.007493 299.000216 422.001189 297.018569 C 433.005097 290.989302 446.983033 282.008647 457.98694 273.997734 L 476.001059 261.981364 C 489.978995 251.019061 503.999418 239.002691 517.000173 226.016579 C 526.984413 216.993761 537.01114 208.013105 544.998532 197.00864 C 556.002439 183.980365 563.01265 169.012606 571.000043 154.002684 C 580.007102 140.004667 582.981131 130.981849 587.994494 116.01409 C 589.014161 110.996728 591.98819 102.985815 589.991342 98.010616 Z M 589.991342 98.010616 " stroke="#000000" stroke-width="1" stroke-opacity="1" stroke-miterlimit="4"/></g><g clip-path="url(#4b474b55ce)"><path fill="#000000" d="M 1.460938 4.707031 C 1.183594 5.726562 1.550781 6.929688 1.917969 7.859375 C 2.746094 10.082031 4.125 12.027344 5.503906 13.878906 C 6.332031 15.085938 7.710938 16.566406 8.722656 17.585938 L 9.828125 18.511719 L 12.21875 20.644531 C 14.148438 22.125 17.734375 24.347656 19.941406 25.367188 L 22.882812 26.664062 L 24.078125 27.128906 C 25.457031 27.683594 26.835938 28.054688 28.308594 28.332031 C 29.132812 28.519531 30.054688 28.796875 30.882812 28.796875 C 30.605469 27.777344 30.054688 27.871094 29.226562 27.589844 L 26.191406 26.386719 C 21.960938 24.625 17.273438 22.867188 13.964844 19.53125 C 14.605469 19.53125 15.066406 20.085938 15.527344 20.457031 C 16.171875 20.921875 16.996094 21.476562 17.734375 21.941406 C 19.757812 23.144531 24.351562 25.273438 26.652344 26.109375 C 27.570312 26.480469 29.132812 27.128906 30.054688 27.128906 C 30.789062 27.222656 31.800781 26.757812 32.351562 26.386719 C 31.984375 26.015625 31.617188 26.109375 31.066406 26.015625 L 28.214844 25.183594 C 25.730469 24.535156 23.34375 23.609375 21.042969 22.402344 L 19.757812 21.847656 L 18.007812 20.734375 L 15.894531 19.347656 L 13.6875 17.585938 L 9.917969 14.621094 L 6.425781 11.007812 L 4.675781 8.96875 L 2.839844 6.929688 Z M 1.460938 4.707031 " fill-opacity="1" fill-rule="nonzero"/></g><g clip-path="url(#0c47c0e970)"><path stroke-linecap="butt" transform="matrix(0.0919418, 0, 0, 0.0926471, -10.584694, -3.90852)" fill="none" stroke-linejoin="miter" d="M 131.013694 92.993255 C 127.997179 103.99772 131.990875 116.983832 135.984571 127.018555 C 144.99163 151.009132 159.989234 172.006158 174.986837 191.991279 C 183.993896 205.019553 198.9915 220.999217 209.995407 232.003683 L 222.018981 241.996243 L 248.020492 265.017078 C 269.00864 280.996742 308.010906 304.987319 332.015569 315.991785 L 364.007624 329.989802 L 377.008379 335.007163 C 392.005982 340.994267 407.003586 344.999724 423.020856 347.993275 C 431.985429 350.017085 442.012156 353.010637 451.019215 353.010637 C 448.0027 342.006172 442.012156 343.018077 433.005097 339.982362 L 399.993375 326.99625 C 353.980897 307.980871 302.997543 289.007655 267.011792 253.000708 C 273.979517 253.000708 278.99288 258.987812 284.006243 262.993268 C 291.016454 268.01063 299.981028 273.997734 308.010906 279.015095 C 330.018721 292.001207 379.982408 314.97988 405.006738 324.002698 C 414.990978 328.008155 431.985429 335.007163 442.012156 335.007163 C 449.999548 336.019068 461.003455 331.001707 466.994 326.99625 C 463.000303 322.990793 459.006607 324.002698 453.016063 322.990793 L 422.001189 314.010138 C 394.980011 307.011129 369.020987 297.018569 343.996657 283.990294 L 330.018721 278.00319 L 310.984935 265.98682 L 287.999939 251.019061 L 263.995277 232.003683 L 222.996162 200.002192 L 185.013563 161.001693 L 165.979778 138.992762 L 146.011297 116.983832 Z M 131.013694 92.993255 " stroke="#000000" stroke-width="1" stroke-opacity="1" stroke-miterlimit="4"/></g><g clip-path="url(#1237ad4f04)"><path fill="#000000" d="M 30.972656 27.589844 C 31.15625 27.960938 31.523438 28.519531 31.523438 28.980469 C 31.523438 30 30.328125 30.925781 29.410156 30.835938 C 29.042969 30.742188 28.214844 30.277344 27.9375 30.835938 C 27.847656 31.019531 27.847656 31.203125 27.9375 31.296875 C 27.9375 31.667969 28.398438 31.851562 28.765625 32.039062 C 29.777344 32.316406 30.882812 31.945312 31.707031 31.390625 C 32.351562 31.019531 32.8125 30.371094 32.996094 29.628906 L 33.179688 28.425781 C 33.273438 28.054688 33.640625 27.960938 34.097656 27.3125 C 34.652344 26.574219 35.203125 25.273438 35.9375 24.71875 C 36.214844 24.535156 36.488281 24.441406 36.855469 24.347656 C 36.671875 24.070312 36.488281 23.886719 36.304688 23.609375 C 36.121094 23.515625 35.9375 23.328125 35.753906 23.328125 C 35.476562 23.238281 35.109375 23.238281 34.835938 23.421875 C 33.546875 24.070312 33.824219 25.273438 33.085938 26.203125 C 32.535156 26.941406 31.890625 27.3125 30.972656 27.589844 Z M 30.972656 27.589844 " fill-opacity="1" fill-rule="nonzero"/></g><g clip-path="url(#d6b5149f15)"><path stroke-linecap="butt" transform="matrix(0.0919418, 0, 0, 0.0926471, -10.584694, -3.90852)" fill="none" stroke-linejoin="miter" d="M 451.996396 339.982362 C 453.993244 343.987819 457.98694 350.017085 457.98694 354.992284 C 457.98694 365.996749 444.986185 375.989309 435.001945 375.019567 C 431.008249 374.007662 422.001189 368.990301 418.984674 375.019567 C 418.007493 377.001214 418.007493 378.982861 418.984674 379.994766 C 418.984674 384.000223 423.998037 385.98187 427.991733 388.005679 C 438.995641 390.999231 451.019215 386.993775 459.983788 381.006671 C 466.994 377.001214 472.007363 370.002206 474.004211 361.991292 L 476.001059 349.00518 C 477.020726 344.999724 481.014422 343.987819 485.985299 336.98881 C 492.018329 329.02006 498.008873 314.97988 505.996266 308.992776 C 509.012781 307.011129 511.98681 305.999224 515.980506 304.987319 C 513.983658 301.993768 511.98681 300.012121 509.989962 297.018569 C 507.993114 296.006664 505.996266 293.982854 503.999418 293.982854 C 500.982902 293.013112 496.989206 293.013112 494.015177 294.994759 C 479.994755 301.993768 483.01127 314.97988 474.981392 325.014603 C 468.990848 332.983354 461.980636 336.98881 451.996396 339.982362 Z M 451.996396 339.982362 " stroke="#000000" stroke-width="1" stroke-opacity="1" stroke-miterlimit="4"/></g><path stroke-linecap="butt" transform="matrix(0.0919418, 0, 0, 0.0926471, -10.584694, -3.90852)" fill-opacity="1" fill="#000000" fill-rule="nonzero" stroke-linejoin="miter" d="M 483.988451 353.010637 C 490.998662 356.004189 496.989206 354.992284 503.999418 354.992284 L 518.997021 356.004189 C 526.007232 356.004189 528.00408 351.998732 531.020595 346.011628 C 531.997776 343.987819 533.017444 339.982362 531.020595 338.000715 C 528.981261 336.019068 524.987565 336.019068 522.013536 336.019068 L 505.019085 336.98881 C 502.00257 336.98881 496.989206 336.98881 494.015177 338.000715 C 489.001814 340.994267 485.008118 347.993275 483.988451 353.010637 Z M 483.988451 353.010637 " stroke="#000000" stroke-width="1" stroke-opacity="1" stroke-miterlimit="4"/><path stroke-linecap="butt" transform="matrix(0.0919418, 0, 0, 0.0926471, -10.584694, -3.90852)" fill-opacity="1" fill="#000000" fill-rule="nonzero" stroke-linejoin="miter" d="M 537.988321 367.008654 C 533.017444 364.984844 530.000928 363.003197 526.984413 358.997741 C 526.007232 360.009645 524.987565 360.009645 524.010384 360.979388 C 522.990717 365.996749 535.991473 378.013119 537.988321 367.008654 Z M 537.988321 367.008654 " stroke="#000000" stroke-width="1" stroke-opacity="1" stroke-miterlimit="4"/><path stroke-linecap="butt" transform="matrix(0.0919418, 0, 0, 0.0926471, -10.584694, -3.90852)" fill-opacity="1" fill="#000000" fill-rule="nonzero" stroke-linejoin="miter" d="M 531.020595 332.983354 L 539.007988 338.000715 C 537.01114 342.006172 531.997776 350.017085 533.017444 354.992284 C 533.994624 364.984844 548.015047 364.984844 554.005591 358.997741 C 561.015802 350.986827 561.015802 339.01262 550.989076 332.983354 C 544.998532 329.989802 537.988321 331.001707 531.020595 332.983354 Z M 531.020595 332.983354 " stroke="#000000" stroke-width="1" stroke-opacity="1" stroke-miterlimit="4"/><path stroke-linecap="butt" transform="matrix(0.0919418, 0, 0, 0.0926471, -10.584694, -3.90852)" fill-opacity="1" fill="#000000" fill-rule="nonzero" stroke-linejoin="miter" d="M 172.012808 360.979388 L 172.989989 361.991292 C 181.019867 360.009645 185.990744 357.016094 187.010411 349.00518 C 181.019867 350.017085 174.986837 356.004189 172.012808 360.979388 Z M 172.012808 360.979388 " stroke="#000000" stroke-width="1" stroke-opacity="1" stroke-miterlimit="4"/><path stroke-linecap="butt" transform="matrix(0.0919418, 0, 0, 0.0926471, -10.584694, -3.90852)" fill-opacity="1" fill="#000000" fill-rule="nonzero" stroke-linejoin="miter" d="M 178.980533 324.002698 C 176.006504 322.021051 172.989989 321.009146 168.996293 321.009146 C 165.979778 321.009146 163.005749 321.009146 159.989234 322.021051 C 150.004993 325.984345 148.985326 342.006172 157.015205 349.00518 C 161.008901 353.010637 170.993141 354.992284 174.986837 350.017085 C 178.980533 346.011628 178.003352 340.994267 176.006504 336.019068 C 174.986837 332.983354 172.989989 329.02006 174.986837 326.99625 C 176.006504 325.014603 178.003352 325.014603 178.980533 324.002698 Z M 178.980533 324.002698 " stroke="#000000" stroke-width="1" stroke-opacity="1" stroke-miterlimit="4"/><path stroke-linecap="butt" transform="matrix(0.0919418, 0, 0, 0.0926471, -10.584694, -3.90852)" fill-opacity="1" fill="#000000" fill-rule="nonzero" stroke-linejoin="miter" d="M 178.003352 328.008155 C 178.980533 331.001707 183.993896 343.018077 185.990744 344.999724 C 189.007259 346.981371 191.981288 346.981371 194.997804 346.981371 L 213.011922 346.011628 L 226.012678 346.011628 C 226.012678 343.018077 226.012678 339.982362 224.99301 338.000715 C 222.018981 329.989802 211.015074 325.984345 202.985196 325.984345 L 194.020623 326.99625 C 187.987592 326.99625 183.016715 325.984345 178.003352 328.008155 Z M 178.003352 328.008155 " stroke="#000000" stroke-width="1" stroke-opacity="1" stroke-miterlimit="4"/><path fill="#000000" d="M 7.527344 23.515625 C 9.273438 23.976562 9.273438 25.460938 10.011719 26.480469 C 10.285156 26.851562 11.023438 27.40625 11.113281 27.777344 C 11.207031 28.054688 11.113281 28.148438 11.207031 28.796875 C 11.390625 29.628906 11.941406 30.464844 12.675781 30.925781 C 13.503906 31.484375 14.238281 31.851562 15.25 31.574219 C 15.800781 31.390625 16.355469 31.019531 16.078125 30.371094 C 15.800781 29.722656 14.792969 30.371094 14.148438 30.1875 C 13.503906 29.90625 12.769531 28.980469 12.769531 28.238281 L 13.136719 26.941406 C 12.125 26.574219 10.929688 25.738281 10.46875 24.71875 C 10.195312 24.070312 10.195312 23.144531 9.734375 22.679688 C 8.90625 22.03125 7.804688 22.589844 7.527344 23.515625 Z M 7.527344 23.515625 " fill-opacity="1" fill-rule="nonzero"/><g clip-path="url(#e830fa14e7)"><path stroke-linecap="butt" transform="matrix(0.0919418, 0, 0, 0.0926471, -10.584694, -3.90852)" fill="none" stroke-linejoin="miter" d="M 196.994652 296.006664 C 215.985951 300.981863 215.985951 317.00369 224.01583 328.008155 C 226.989859 332.013611 235.019737 338.000715 235.996918 342.006172 C 237.016585 344.999724 235.996918 346.011628 237.016585 353.010637 C 239.013433 361.991292 245.003977 371.014111 252.991369 375.989309 C 261.998429 382.018576 269.985821 385.98187 280.989728 382.988318 C 286.980272 381.006671 293.013303 377.001214 289.996787 370.002206 C 286.980272 363.003197 276.018851 370.002206 269.00864 368.020559 C 261.998429 364.984844 254.011036 354.992284 254.011036 346.981371 L 258.004732 332.983354 C 247.000825 329.02006 234.00007 319.997241 228.986707 308.992776 C 226.012678 301.993768 226.012678 292.001207 220.999314 286.983846 C 211.992255 279.984837 200.011167 286.014104 196.994652 296.006664 Z M 196.994652 296.006664 " stroke="#000000" stroke-width="1" stroke-opacity="1" stroke-miterlimit="4"/></g><path stroke-linecap="butt" transform="matrix(0.0919418, 0, 0, 0.0926471, -10.584694, -3.90852)" fill-opacity="1" fill="#000000" fill-rule="nonzero" stroke-linejoin="miter" d="M 245.003977 318.985336 C 248.020492 322.990793 250.01734 324.002698 254.011036 325.984345 C 267.988973 333.995258 276.996032 328.008155 291.016454 325.014603 L 319.991994 315.991785 C 316.168243 313.41986 307.586045 308.065197 304.01721 305.999224 L 284.983424 311.016586 Z M 245.003977 318.985336 " stroke="#000000" stroke-width="1" stroke-opacity="1" stroke-miterlimit="4"/><path stroke-linecap="butt" transform="matrix(0.0919418, 0, 0, 0.0926471, -10.584694, -3.90852)" fill-opacity="1" fill="#000000" fill-rule="nonzero" stroke-linejoin="miter" d="M 258.981913 347.993275 C 284.983424 347.993275 308.988087 339.982362 334.012417 333.995258 C 334.012417 333.995258 345.016324 328.809246 348.670131 328.809246 C 345.186269 326.279484 331.038388 321.135634 328.829109 319.153987 C 325.85508 320.039404 314.00145 324.002698 310.007754 325.014603 L 284.983424 332.013611 L 273.002336 335.007163 C 265.992125 338.000715 260.978761 339.01262 258.981913 347.993275 Z M 258.981913 347.993275 " stroke="#000000" stroke-width="1" stroke-opacity="1" stroke-miterlimit="4"/><path stroke-linecap="butt" transform="matrix(0.0919418, 0, 0, 0.0926471, -10.584694, -3.90852)" fill-opacity="1" fill="#000000" fill-rule="nonzero" stroke-linejoin="miter" d="M 336.009265 233.015587 C 336.009265 235.503187 336.264182 238.538901 337.241362 240.014596 C 338.26103 241.532453 341.999809 241.658941 343.019476 240.984338 C 343.826712 240.183247 342.254726 236.262116 341.362517 235.123723 C 340.512794 233.98533 338.983294 233.479377 336.009265 233.015587 Z M 336.009265 233.015587 " stroke="#000000" stroke-width="1" stroke-opacity="1" stroke-miterlimit="4"/><path stroke-linecap="butt" transform="matrix(0.0919418, 0, 0, 0.0926471, -10.584694, -3.90852)" fill-opacity="1" fill="#000000" fill-rule="nonzero" stroke-linejoin="miter" d="M 343.996657 233.98533 L 345.016324 239.002691 C 345.016324 240.014596 345.993505 241.996243 347.013172 243.008148 C 351.006868 244.989795 353.003716 234.997234 349.987201 233.98533 C 347.990353 233.015587 345.993505 233.98533 343.996657 233.98533 Z M 343.996657 233.98533 " stroke="#000000" stroke-width="1" stroke-opacity="1" stroke-miterlimit="4"/><path stroke-linecap="butt" transform="matrix(0.0919418, 0, 0, 0.0926471, -10.584694, -3.90852)" fill-opacity="1" fill="#000000" fill-rule="nonzero" stroke-linejoin="miter" d="M 356.020231 234.997234 C 353.003716 237.021044 352.918744 240.731362 354.023383 242.586521 C 355.170509 244.483842 357.507246 244.483842 358.99426 244.020053 C 360.013927 243.5141 361.500942 240.984338 361.6284 238.749715 C 361.755859 236.515092 360.481275 234.491282 356.020231 234.997234 Z M 356.020231 234.997234 " stroke="#000000" stroke-width="1" stroke-opacity="1" stroke-miterlimit="4"/><path stroke-linecap="butt" transform="matrix(0.0919418, 0, 0, 0.0926471, -10.584694, -3.90852)" fill-opacity="1" fill="#000000" fill-rule="nonzero" stroke-linejoin="miter" d="M 345.016324 222.011122 C 347.69295 223.402491 352.153994 221.926797 352.153994 221.926797 L 351.984049 215.981856 C 351.006868 212.018562 347.990353 211.006657 345.993505 212.988304 C 345.016324 215.012114 345.016324 219.987313 345.016324 222.011122 Z M 345.016324 222.011122 " stroke="#000000" stroke-width="1" stroke-opacity="1" stroke-miterlimit="4"/><path stroke-linecap="butt" transform="matrix(0.0919418, 0, 0, 0.0926471, -10.584694, -3.90852)" fill-opacity="1" fill="#000000" fill-rule="nonzero" stroke-linejoin="miter" d="M 360.013927 212.018562 C 358.99426 212.018562 355.850287 211.470447 354.873106 212.482352 C 352.918744 214.421836 351.984049 220.999217 355.000564 222.980864 C 356.869954 223.486817 360.013927 223.908444 360.991108 219.902987 L 360.991108 216.993761 C 360.991108 216.993761 360.948622 213.747233 360.013927 212.018562 Z M 360.013927 212.018562 " stroke="#000000" stroke-width="1" stroke-opacity="1" stroke-miterlimit="4"/><path stroke-linecap="butt" transform="matrix(0.0919418, 0, 0, 0.0926471, -10.584694, -3.90852)" fill-opacity="1" fill="#000000" fill-rule="nonzero" stroke-linejoin="miter" d="M 369.998168 244.020053 C 370.932863 244.399517 371.995016 243.008148 373.014683 241.996243 C 379.982408 234.997234 365.452152 229.389595 368.00132 240.014596 C 368.00132 240.014596 368.936014 243.809239 369.998168 244.020053 Z M 369.998168 244.020053 " stroke="#000000" stroke-width="1" stroke-opacity="1" stroke-miterlimit="4"/><path stroke-linecap="butt" transform="matrix(0.0919418, 0, 0, 0.0926471, -10.584694, -3.90852)" fill-opacity="1" fill="#000000" fill-rule="nonzero" stroke-linejoin="miter" d="M 341.744892 211.006657 C 340.725225 210.669356 338.983294 211.006657 338.006113 211.006657 C 330.231151 214.506161 340.002961 227.998226 343.019476 219.01757 L 343.019476 215.981856 C 343.019476 215.981856 342.42467 211.343959 341.744892 211.006657 Z M 341.744892 211.006657 " stroke="#000000" stroke-width="1" stroke-opacity="1" stroke-miterlimit="4"/><path stroke-linecap="butt" transform="matrix(0.0919418, 0, 0, 0.0926471, -10.584694, -3.90852)" fill-opacity="1" fill="#000000" fill-rule="nonzero" stroke-linejoin="miter" d="M 364.007624 212.018562 C 364.007624 212.018562 362.308178 222.13761 362.987956 222.980864 C 364.305026 223.69763 368.341209 223.52898 369.828223 222.474912 C 369.828223 219.48136 369.998168 215.981856 369.403362 214.126697 C 368.808556 212.313701 367.491486 212.482352 364.007624 212.018562 Z M 364.007624 212.018562 " stroke="#000000" stroke-width="1" stroke-opacity="1" stroke-miterlimit="4"/><path stroke-linecap="butt" transform="matrix(0.0919418, 0, 0, 0.0926471, -10.584694, -3.90852)" fill-opacity="1" fill="#000000" fill-rule="nonzero" stroke-linejoin="miter" d="M 373.567003 210.838006 L 373.014683 215.981856 C 373.014683 219.01757 373.651975 224.836023 377.645671 221.842471 C 378.155504 221.336519 379.515061 215.391578 378.962741 212.651002 C 377.900588 211.217471 376.031198 211.04882 373.567003 210.838006 Z M 373.567003 210.838006 " stroke="#000000" stroke-width="1" stroke-opacity="1" stroke-miterlimit="4"/></svg>